<svg width="76" height="20" viewBox="0 0 76 20" fill="none" xmlns="http://www.w3.org/2000/svg">
<path d="M16.087 0H3.91304C1.75193 0 0 1.75193 0 3.91304V16.087C0 18.2481 1.75193 20 3.91304 20H16.087C18.2481 20 20 18.2481 20 16.087V3.91304C20 1.75193 18.2481 0 16.087 0Z" fill="white"/>
<path d="M9.11004 2.84183C9.65939 2.51828 10.3406 2.51828 10.89 2.84183L15.6573 5.64922C16.193 5.96478 16.5217 6.54083 16.5217 7.16291V12.8372C16.5217 13.4593 16.193 14.0353 15.6573 14.3508L10.89 17.1587C10.3407 17.4821 9.6593 17.4821 9.11004 17.1587L4.34274 14.3508C3.80703 14.0353 3.47826 13.4593 3.47826 12.8372V7.16291C3.47826 6.54083 3.80702 5.96478 4.34274 5.64922L9.11004 2.84183ZM10.4067 4.9703C10.183 4.73974 9.81704 4.73974 9.59326 4.9703L5.1087 9.592C4.88909 9.81835 4.88909 10.1817 5.1087 10.4081L9.59326 15.0297C9.81709 15.2603 10.1829 15.2603 10.4067 15.0297L14.8913 10.4081C15.1109 10.1817 15.1109 9.81835 14.8913 9.592L10.4067 4.9703Z" fill="#18181B"/>
<path d="M25.7 16.9193V2.875H30.9666C32.0455 2.875 32.9507 3.06244 33.6822 3.43732C34.4182 3.8122 34.9737 4.33794 35.3486 5.01456C35.728 5.6866 35.9178 6.47065 35.9178 7.3667C35.9178 8.26732 35.7257 9.04909 35.3417 9.71198C34.9623 10.3703 34.4022 10.8801 33.6616 11.2412C32.921 11.5978 32.0112 11.7761 30.9323 11.7761H27.1812V9.66398H30.5894C31.2203 9.66398 31.7369 9.57712 32.1392 9.40339C32.5416 9.2251 32.8387 8.9668 33.0307 8.62849C33.2273 8.28561 33.3256 7.86501 33.3256 7.3667C33.3256 6.86838 33.2273 6.44321 33.0307 6.09119C32.8341 5.7346 32.5347 5.46487 32.1324 5.282C31.7301 5.09456 31.2112 5.00084 30.5757 5.00084H28.2442V16.9193H25.7ZM32.9553 10.5555L36.4321 16.9193H33.593L30.178 10.5555H32.9553Z" fill="white"/>
<path d="M41.8212 17.125C40.7925 17.125 39.901 16.8987 39.1467 16.4461C38.3924 15.9935 37.8072 15.3603 37.3912 14.5466C36.9797 13.7328 36.774 12.7819 36.774 11.6938C36.774 10.6058 36.9797 9.65255 37.3912 8.83422C37.8072 8.01588 38.3924 7.38041 39.1467 6.92782C39.901 6.47522 40.7925 6.24892 41.8212 6.24892C42.8498 6.24892 43.7413 6.47522 44.4956 6.92782C45.2499 7.38041 45.8328 8.01588 46.2443 8.83422C46.6603 9.65255 46.8683 10.6058 46.8683 11.6938C46.8683 12.7819 46.6603 13.7328 46.2443 14.5466C45.8328 15.3603 45.2499 15.9935 44.4956 16.4461C43.7413 16.8987 42.8498 17.125 41.8212 17.125ZM41.8349 15.1363C42.3926 15.1363 42.8589 14.9832 43.2338 14.6769C43.6087 14.366 43.8876 13.95 44.0704 13.4288C44.2579 12.9076 44.3516 12.327 44.3516 11.687C44.3516 11.0423 44.2579 10.4595 44.0704 9.93828C43.8876 9.41254 43.6087 8.99423 43.2338 8.68335C42.8589 8.37247 42.3926 8.21704 41.8349 8.21704C41.2634 8.21704 40.7879 8.37247 40.4085 8.68335C40.0336 8.99423 39.7525 9.41254 39.565 9.93828C39.3822 10.4595 39.2907 11.0423 39.2907 11.687C39.2907 12.327 39.3822 12.9076 39.565 13.4288C39.7525 13.95 40.0336 14.366 40.4085 14.6769C40.7879 14.9832 41.2634 15.1363 41.8349 15.1363Z" fill="white"/>
<path d="M57.2531 6.38607L53.502 16.9193H50.759L47.0079 6.38607H49.6549L52.0757 14.2105H52.1854L54.613 6.38607H57.2531Z" fill="white"/>
<path d="M62.5033 17.125C61.4473 17.125 60.5352 16.9056 59.7672 16.4667C59.0037 16.0232 58.4162 15.3969 58.0048 14.5877C57.5933 13.7739 57.3876 12.8162 57.3876 11.7144C57.3876 10.6309 57.5933 9.67998 58.0048 8.86165C58.4208 8.03874 59.0014 7.3987 59.7466 6.94153C60.4918 6.47979 61.3673 6.24892 62.373 6.24892C63.0222 6.24892 63.6348 6.35407 64.2109 6.56436C64.7915 6.77009 65.3035 7.09011 65.747 7.52442C66.195 7.95873 66.547 8.51191 66.803 9.18395C67.059 9.85142 67.187 10.6469 67.187 11.5704V12.3316H58.5534V10.6583H64.8075C64.8029 10.1829 64.7 9.75999 64.4989 9.38968C64.2977 9.0148 64.0166 8.71992 63.6554 8.50505C63.2988 8.29018 62.8828 8.18275 62.4073 8.18275C61.8999 8.18275 61.4541 8.30618 61.0701 8.55306C60.6861 8.79536 60.3866 9.11538 60.1718 9.51311C59.9615 9.90628 59.854 10.3383 59.8495 10.8092V12.2699C59.8495 12.8825 59.9615 13.4082 60.1855 13.8471C60.4095 14.2814 60.7227 14.6151 61.125 14.8483C61.5273 15.0769 61.9982 15.1912 62.5376 15.1912C62.8988 15.1912 63.2257 15.1409 63.5182 15.0403C63.8108 14.9352 64.0646 14.782 64.2794 14.5808C64.4943 14.3797 64.6566 14.1305 64.7663 13.8334L67.0842 14.094C66.9379 14.7066 66.659 15.2415 66.2476 15.6986C65.8407 16.1512 65.3195 16.5032 64.684 16.7547C64.0486 17.0016 63.3217 17.125 62.5033 17.125Z" fill="white"/>
<path d="M68.5147 16.9193V6.38607H70.9217V8.1416H71.0315C71.2235 7.53357 71.5526 7.06497 72.0189 6.7358C72.4853 6.40207 73.0224 6.2352 73.6305 6.2352C73.9139 6.2352 74.1745 6.26949 74.4122 6.33807C74.65 6.40664 74.8603 6.50036 75.0431 6.61923L74.2751 8.67649C74.1425 8.61249 73.9962 8.55991 73.8362 8.51877C73.6762 8.47762 73.4956 8.45705 73.2945 8.45705C72.8647 8.45705 72.4761 8.55306 72.1287 8.74507C71.7812 8.93708 71.5046 9.20452 71.2989 9.5474C71.0977 9.88571 70.9972 10.2789 70.9972 10.7269V16.9193H68.5147Z" fill="white"/>
</svg>
