<svg width="740" height="232" viewBox="0 0 740 232" fill="none" xmlns="http://www.w3.org/2000/svg">
<path d="M189.498 31.7895H86.9808C68.7819 31.7895 54.0288 46.5426 54.0288 64.7414V167.259C54.0288 185.457 68.7819 200.211 86.9808 200.211H189.498C207.697 200.211 222.45 185.457 222.45 167.259V64.7414C222.45 46.5426 207.697 31.7895 189.498 31.7895Z" fill="#060807"/>
<path d="M130.745 55.7207C135.371 52.996 141.108 52.996 145.734 55.7207L185.879 79.3618C190.391 82.0192 193.159 86.8701 193.159 92.1087V139.892C193.159 145.131 190.391 149.981 185.879 152.639L145.734 176.283C141.108 179.007 135.37 179.007 130.745 176.283L90.5992 152.639C86.088 149.981 83.3194 145.131 83.3194 139.892V92.1087C83.3194 86.8701 86.0879 82.0192 90.5992 79.3618L130.745 55.7207ZM141.664 73.6447C139.78 71.7031 136.699 71.7031 134.814 73.6447L97.0494 112.564C95.2001 114.47 95.2001 117.53 97.0494 119.437L134.814 158.356C136.699 160.298 139.78 160.298 141.664 158.356L179.429 119.437C181.279 117.53 181.279 114.47 179.429 112.564L141.664 73.6447Z" fill="white"/>
<path d="M270.45 174.268V56H314.8C323.886 56 331.509 57.5784 337.668 60.7353C343.867 63.8922 348.544 68.3195 351.701 74.0173C354.896 79.6766 356.494 86.2791 356.494 93.8248C356.494 101.409 354.877 107.992 351.643 113.575C348.448 119.118 343.732 123.411 337.495 126.452C331.258 129.455 323.597 130.957 314.511 130.957H282.923V113.17H311.624C316.937 113.17 321.287 112.439 324.675 110.976C328.063 109.474 330.565 107.299 332.182 104.45C333.838 101.563 334.665 98.0212 334.665 93.8248C334.665 89.6285 333.838 86.0481 332.182 83.0837C330.527 80.0808 328.005 77.8094 324.617 76.2695C321.229 74.6911 316.86 73.9018 311.509 73.9018H291.874V174.268H270.45ZM331.547 120.678L360.825 174.268H336.918L308.159 120.678H331.547Z" fill="#060807"/>
<path d="M406.207 176C397.545 176 390.038 174.094 383.685 170.283C377.333 166.472 372.405 161.14 368.902 154.287C365.437 147.434 363.705 139.426 363.705 130.264C363.705 121.101 365.437 113.074 368.902 106.183C372.405 99.2916 377.333 93.9403 383.685 90.129C390.038 86.3176 397.545 84.4119 406.207 84.4119C414.869 84.4119 422.376 86.3176 428.729 90.129C435.081 93.9403 439.989 99.2916 443.454 106.183C446.958 113.074 448.709 121.101 448.709 130.264C448.709 139.426 446.958 147.434 443.454 154.287C439.989 161.14 435.081 166.472 428.729 170.283C422.376 174.094 414.869 176 406.207 176ZM406.322 159.253C411.019 159.253 414.946 157.963 418.103 155.384C421.26 152.766 423.608 149.263 425.148 144.874C426.727 140.485 427.516 135.596 427.516 130.206C427.516 124.778 426.727 119.869 425.148 115.48C423.608 111.053 421.26 107.53 418.103 104.912C414.946 102.295 411.019 100.986 406.322 100.986C401.51 100.986 397.506 102.295 394.311 104.912C391.154 107.53 388.786 111.053 387.208 115.48C385.668 119.869 384.898 124.778 384.898 130.206C384.898 135.596 385.668 140.485 387.208 144.874C388.786 149.263 391.154 152.766 394.311 155.384C397.506 157.963 401.51 159.253 406.322 159.253Z" fill="#060807"/>
<path d="M536.16 85.5669L504.572 174.268H481.473L449.885 85.5669H472.176L492.561 151.457H493.485L513.927 85.5669H536.16Z" fill="#060807"/>
<path d="M580.373 176C571.479 176 563.799 174.152 557.331 170.456C550.902 166.722 545.955 161.448 542.49 154.633C539.025 147.781 537.293 139.715 537.293 130.437C537.293 121.313 539.025 113.305 542.49 106.414C545.993 99.4841 550.883 94.0943 557.158 90.2445C563.433 86.3561 570.806 84.4119 579.275 84.4119C584.742 84.4119 589.901 85.2974 594.752 87.0683C599.641 88.8008 603.953 91.4957 607.687 95.153C611.46 98.8104 614.425 103.469 616.581 109.128C618.737 114.749 619.814 121.448 619.814 129.224V135.634H547.11V121.544H599.776C599.737 117.54 598.871 113.979 597.177 110.86C595.483 107.704 593.116 105.22 590.074 103.411C587.071 101.602 583.568 100.697 579.564 100.697C575.291 100.697 571.537 101.736 568.303 103.815C565.069 105.856 562.548 108.551 560.738 111.9C558.967 115.211 558.063 118.849 558.024 122.814V135.115C558.024 140.273 558.967 144.701 560.854 148.397C562.74 152.054 565.378 154.864 568.765 156.828C572.153 158.753 576.119 159.715 580.661 159.715C583.703 159.715 586.455 159.292 588.919 158.445C591.383 157.559 593.52 156.269 595.329 154.576C597.139 152.882 598.505 150.783 599.429 148.281L618.948 150.475C617.716 155.634 615.368 160.139 611.903 163.988C608.477 167.8 604.088 170.764 598.736 172.882C593.385 174.961 587.264 176 580.373 176Z" fill="#060807"/>
<path d="M630.995 174.268V85.5669H651.264V100.35H652.188C653.805 95.23 656.577 91.2839 660.504 88.512C664.431 85.7016 668.955 84.2964 674.075 84.2964C676.462 84.2964 678.656 84.5852 680.658 85.1627C682.66 85.7401 684.431 86.5294 685.971 87.5303L679.503 104.855C678.387 104.316 677.155 103.873 675.807 103.526C674.46 103.18 672.939 103.007 671.245 103.007C667.626 103.007 664.354 103.815 661.428 105.432C658.502 107.049 656.173 109.301 654.441 112.189C652.747 115.038 651.9 118.348 651.9 122.121V174.268H630.995Z" fill="#060807"/>
</svg>
