<svg preserveAspectRatio="none" width="100%" height="100%" overflow="visible" style="display: block;" viewBox="0 0 16 16" fill="none" xmlns="http://www.w3.org/2000/svg">
<g id="IconReadingList" clip-path="url(#clip0_12230_5008)">
<path id="Vector" d="M4 11C5.65685 11 7 9.65687 7 8C7 6.34315 5.65685 5 4 5C2.34315 5 1 6.34315 1 8C1 9.65687 2.34315 11 4 11Z" stroke="var(--stroke-0, #52525B)" stroke-linecap="round"/>
<path id="Vector_2" d="M12 11C13.6569 11 15 9.65687 15 8C15 6.34315 13.6569 5 12 5C10.3431 5 9 6.34315 9 8C9 9.65687 10.3431 11 12 11Z" stroke="var(--stroke-0, #52525B)" stroke-linecap="round"/>
<path id="Vector_3" d="M0.333333 6.33333H1.33333" stroke="var(--stroke-0, #52525B)" stroke-linecap="round"/>
<path id="Vector_4" d="M15.6667 6.33333H14.6667" stroke="var(--stroke-0, #52525B)" stroke-linecap="round"/>
<path id="Vector_5" d="M9.49353 6.06389C9.05387 5.81119 8.54413 5.66667 8.00067 5.66667C7.4572 5.66667 6.94747 5.81119 6.50781 6.06389" stroke="var(--stroke-0, #52525B)" stroke-linecap="round"/>
</g>
<defs>
<clipPath id="clip0_12230_5008">
<rect width="16" height="16" fill="white"/>
</clipPath>
</defs>
</svg>
